<?xml version="1.0" encoding="utf-8"?>
<!-- Generator: Adobe Illustrator 25.2.1, SVG Export Plug-In . SVG Version: 6.00 Build 0)  -->
<svg version="1.1" id="Ebene_1" xmlns="http://www.w3.org/2000/svg" xmlns:xlink="http://www.w3.org/1999/xlink" x="0px" y="0px"
	 viewBox="0 0 53 10.1" style="enable-background:new 0 0 53 10.1;" xml:space="preserve">
<style type="text/css">
	.st0{fill:#FFFFFF;}
	.st1{fill:#007AFC;}
</style>
<g>
	<path class="st0" d="M3.6,8.1c-0.9,0-1.6-0.3-2.3-0.9C0.7,6.6,0.4,5.9,0.4,5c0-0.9,0.3-1.6,0.9-2.2c0.6-0.6,1.4-0.9,2.3-0.9
		c0.6,0,1.2,0.2,1.7,0.5c0.5,0.3,0.9,0.7,1.2,1.3L5,4.4C4.9,4.1,4.7,3.8,4.5,3.7C4.2,3.5,3.9,3.4,3.6,3.4c-0.4,0-0.8,0.2-1.1,0.5
		S2.1,4.5,2.1,5s0.1,0.8,0.4,1.1c0.3,0.3,0.7,0.5,1.1,0.5c0.3,0,0.6-0.1,0.9-0.3C4.7,6.2,4.9,5.9,5,5.6l1.4,0.8
		C6.2,6.9,5.8,7.3,5.3,7.7C4.8,8,4.2,8.1,3.6,8.1z"/>
	<path class="st0" d="M16.6,8.1c-0.8,0-1.5-0.3-2-0.9C14,6.6,13.7,5.9,13.7,5c0-0.9,0.3-1.6,0.8-2.2c0.5-0.6,1.2-0.9,2-0.9
		c0.4,0,0.7,0.1,1,0.2c0.3,0.2,0.5,0.3,0.7,0.6V0h1.6v8h-1.6V7.3c-0.2,0.2-0.4,0.4-0.7,0.6C17.3,8.1,16.9,8.1,16.6,8.1z M15.8,6.2
		c0.3,0.3,0.6,0.5,1.1,0.5s0.8-0.2,1.1-0.5c0.3-0.3,0.4-0.7,0.4-1.2c0-0.5-0.1-0.9-0.4-1.2c-0.3-0.3-0.6-0.5-1.1-0.5
		s-0.8,0.2-1.1,0.5S15.4,4.5,15.4,5C15.4,5.5,15.5,5.9,15.8,6.2z"/>
	<path class="st0" d="M23.8,8.1c-0.9,0-1.7-0.3-2.3-0.9C21,6.7,20.7,5.9,20.7,5c0-0.9,0.3-1.6,0.9-2.2c0.6-0.6,1.4-0.9,2.3-0.9
		c0.8,0,1.5,0.3,2.1,0.8c0.6,0.5,0.9,1.2,0.9,2.2c0,0.3,0,0.5,0,0.6h-4.5c0,0.4,0.2,0.7,0.5,0.9c0.3,0.2,0.7,0.3,1.1,0.3
		c0.7,0,1.2-0.3,1.5-0.8l1.2,0.9C26,7.7,25.1,8.1,23.8,8.1z M22.3,4.3h2.8c-0.1-0.3-0.2-0.6-0.5-0.8s-0.5-0.3-0.9-0.3
		c-0.3,0-0.6,0.1-0.9,0.3S22.4,3.9,22.3,4.3z"/>
	<path class="st0" d="M30.9,8.1c-0.4,0-0.7-0.1-1-0.2c-0.3-0.2-0.5-0.3-0.7-0.6V8h-1.6V0h1.6v2.7c0.2-0.2,0.4-0.4,0.7-0.6
		c0.3-0.2,0.7-0.2,1-0.2c0.8,0,1.5,0.3,2,0.9c0.5,0.6,0.8,1.4,0.8,2.2c0,0.9-0.3,1.6-0.8,2.2C32.3,7.8,31.7,8.1,30.9,8.1z M29.4,6.2
		c0.3,0.3,0.6,0.5,1.1,0.5s0.8-0.2,1.1-0.5C31.9,5.9,32,5.5,32,5c0-0.5-0.1-0.9-0.4-1.2S31,3.4,30.5,3.4s-0.8,0.2-1.1,0.5
		C29.2,4.1,29,4.5,29,5C29,5.5,29.2,5.9,29.4,6.2z"/>
	<path class="st0" d="M37.1,8.1c-0.8,0-1.5-0.3-2-0.9c-0.5-0.6-0.8-1.4-0.8-2.2c0-0.9,0.3-1.6,0.8-2.2c0.5-0.6,1.2-0.9,2-0.9
		c0.4,0,0.7,0.1,1,0.2s0.5,0.3,0.7,0.6V2h1.6v6h-1.6V7.3c-0.2,0.2-0.4,0.4-0.7,0.6C37.8,8.1,37.5,8.1,37.1,8.1z M36.4,6.2
		c0.3,0.3,0.6,0.5,1.1,0.5s0.8-0.2,1.1-0.5C38.8,5.9,39,5.5,39,5c0-0.5-0.1-0.9-0.4-1.2c-0.3-0.3-0.6-0.5-1.1-0.5s-0.8,0.2-1.1,0.5
		c-0.3,0.3-0.4,0.7-0.4,1.2C35.9,5.5,36.1,5.9,36.4,6.2z"/>
	<path class="st0" d="M43.6,8.1c-1.1,0-2-0.4-2.5-1.2l1.1-1c0.3,0.5,0.7,0.7,1.3,0.7c0.2,0,0.3,0,0.5-0.1c0.1-0.1,0.2-0.2,0.2-0.3
		c0-0.1-0.1-0.2-0.2-0.3c-0.1-0.1-0.3-0.2-0.6-0.3L43,5.6c-0.6-0.1-1-0.4-1.3-0.7s-0.4-0.7-0.4-1.2c0-0.5,0.2-1,0.7-1.3
		s1-0.5,1.6-0.5c0.9,0,1.6,0.3,2.1,1l-1.1,0.9c-0.3-0.4-0.6-0.5-1-0.5c-0.2,0-0.3,0-0.4,0.1S43,3.5,43,3.6c0,0.2,0.2,0.4,0.6,0.5
		l0.6,0.2c1.2,0.3,1.7,0.9,1.7,1.9c0,0.6-0.2,1-0.6,1.4C44.8,7.9,44.3,8.1,43.6,8.1z"/>
	<path class="st0" d="M49.7,8.1c-0.9,0-1.7-0.3-2.3-0.9c-0.6-0.6-0.9-1.3-0.9-2.3c0-0.9,0.3-1.6,0.9-2.2c0.6-0.6,1.4-0.9,2.3-0.9
		c0.8,0,1.5,0.3,2.1,0.8c0.6,0.5,0.9,1.2,0.9,2.2c0,0.3,0,0.5,0,0.6h-4.5c0,0.4,0.2,0.7,0.5,0.9c0.3,0.2,0.7,0.3,1.1,0.3
		c0.7,0,1.2-0.3,1.5-0.8l1.2,0.9C51.8,7.7,50.9,8.1,49.7,8.1z M48.1,4.3h2.8c-0.1-0.3-0.2-0.6-0.5-0.8s-0.5-0.3-0.9-0.3
		c-0.3,0-0.6,0.1-0.9,0.3S48.2,3.9,48.1,4.3z"/>
</g>
<g>
	<path class="st1" d="M10.1,2C8.3,2,6.9,3.4,6.9,5s1.4,3,3.2,3s3.2-1.4,3.2-3.1S11.8,2,10.1,2z"/>
	<path class="st0" d="M9.9,6.8V5.6H9.1C9,5.6,8.9,5.5,9,5.3l1.1-2.2C10.2,3,10.4,3,10.4,3.2v1.3h0.8c0.1,0,0.2,0.1,0.1,0.2l-1.1,2.1
		C10.1,7,9.9,6.9,9.9,6.8z"/>
</g>
</svg>
